Coordinates
version=1
nRows=14
nColumns=40
inDegrees=yes

Units are S.I. units (second, meters, Newtons, ...)
Angles are in degrees.

endheader
time	pelvis_tilt	pelvis_list	pelvis_rotation	pelvis_tx	pelvis_ty	pelvis_tz	hip_flexion_r	hip_adduction_r	hip_rotation_r	knee_angle_r	knee_angle_r_beta	ankle_angle_r	subtalar_angle_r	mtp_angle_r	hip_flexion_l	hip_adduction_l	hip_rotation_l	knee_angle_l	knee_angle_l_beta	ankle_angle_l	subtalar_angle_l	mtp_angle_l	lumbar_extension	lumbar_bending	lumbar_rotation	arm_flex_r	arm_add_r	arm_rot_r	elbow_flex_r	pro_sup_r	wrist_flex_r	wrist_dev_r	arm_flex_l	arm_add_l	arm_rot_l	elbow_flex_l	pro_sup_l	wrist_flex_l	wrist_dev_l
     11.33000000	     -2.88179727	     -4.37257425	     -2.48232079	      1.01738549	      0.93486398	      0.44597357	     26.32893028	     -5.38326522	     -2.58560667	     63.39751445	     63.39751445	      1.20801435	    -12.09917869	     -0.18093180	     13.26118225	     -4.39782418	     -7.52958006	     21.51696891	     21.51696891	     12.81864933	    -13.07062312	      1.94792299	    -10.78553478	      5.16232260	      1.33892198	      2.21578917	    -14.03468091	     -2.80397392	     28.97830804	     46.20105516	      0.00000000	      0.00000000	     12.10223675	    -15.78032920	      0.89104342	     54.05455538	     46.42505702	      0.00000000	      0.00000000
     11.34357143	     -2.99168580	     -4.35485647	     -2.98170182	      1.01626999	      0.93551672	      0.44591959	     27.08812517	     -5.27636185	     -2.70883017	     61.80161921	     61.80161921	      1.59747773	    -12.34546528	     -0.14862136	     12.62576011	     -4.36213920	     -7.96819469	     20.86912994	     20.86912994	     12.91755964	    -12.99396149	      2.04750682	    -10.72932973	      5.15668374	      1.14420382	      0.86137128	    -13.63884464	     -2.67487643	     28.17437981	     46.21395750	      0.00000000	      0.00000000	     13.04540225	    -16.25069852	      0.55665587	     54.43486409	     46.46892508	      0.00000000	      0.00000000
     11.35714286	     -2.97301829	     -4.35681562	     -3.52566533	      1.01522702	      0.93635197	      0.44601759	     27.58659950	     -5.02332316	     -2.71479728	     59.95306140	     59.95306140	      1.84569973	    -12.80069973	     -0.16125504	     11.77009454	     -4.35072375	     -8.52124392	     20.09231646	     20.09231646	     12.96462424	    -12.79763311	      2.01991564	    -10.86707361	      5.14170202	      1.26694929	     -0.63768800	    -13.34499775	     -2.57181695	     27.43933297	     46.22476800	      0.00000000	      0.00000000	     14.01735839	    -16.52209461	     -0.06892203	     55.34930347	     46.54849103	      0.00000000	      0.00000000
     11.37071429	     -3.01040013	     -4.40867789	     -4.02170781	      1.01408812	      0.93699139	      0.44619507	     28.02978738	     -4.71397021	     -2.82374029	     57.88298081	     57.88298081	      2.11109714	    -13.11528376	     -0.05831061	     11.02861190	     -4.39350390	     -9.02986528	     19.38173450	     19.38173450	     13.01946381	    -12.58064049	      1.94092566	    -10.93227021	      5.19446599	      1.17790377	     -2.09226606	    -13.04972165	     -2.53172260	     27.08280570	     46.22358505	      0.00000000	      0.00000000	     14.81383378	    -16.92306162	     -0.71576317	     56.30188558	     46.62613561	      0.00000000	      0.00000000
     11.38428571	     -3.22046818	     -4.30114083	     -4.48507554	      1.01261902	      0.93699126	      0.44638526	     28.67120563	     -4.61016444	     -2.98327813	     55.72804631	     55.72804631	      2.47474300	    -13.01202618	      0.11503548	     10.79451122	     -4.30271424	     -9.44884786	     19.19784370	     19.19784370	     13.15645603	    -12.62458367	      1.88577339	    -10.80209381	      5.05929700	      0.70045373	     -3.14757416	    -12.78440376	     -2.50760768	     26.80983031	     46.22328038	      0.00000000	      0.00000000	     15.54920677	    -17.55913154	     -1.02034583	     56.66903175	     46.66148523	      0.00000000	      0.00000000
     11.39785714	     -3.22316124	     -4.54703551	     -4.89540914	      1.01141501	      0.93763903	      0.44686282	     28.74987015	     -4.07666666	     -3.34687313	     53.00626560	     53.00626560	      2.65858726	    -13.03820488	      0.37635049	      9.92288155	     -4.53559745	     -9.88280667	     18.27828621	     18.27828621	     13.20366363	    -12.25929013	      1.80571324	    -10.98692128	      5.33758677	      0.87207501	     -4.66313161	    -12.50045472	     -2.47317259	     26.56449312	     46.21652801	      0.00000000	      0.00000000	     16.35524208	    -17.80207879	     -1.70571306	     57.82599641	     46.74304472	      0.00000000	      0.00000000
     11.41142857	     -3.32592552	     -4.60867320	     -5.32953345	      1.00994137	      0.93773765	      0.44748260	     28.94436910	     -3.70139499	     -3.59889968	     50.16220651	     50.16220651	      2.91055195	    -12.66013048	      0.47953373	      9.41643465	     -4.62945591	    -10.34611580	     17.79823507	     17.79823507	     13.27858181	    -12.01326019	      1.51695003	    -11.03902745	      5.36679763	      0.81967485	     -5.91264782	    -12.24008682	     -2.47243169	     26.57505361	     46.20357246	      0.00000000	      0.00000000	     17.10533733	    -18.15570506	     -2.44059546	     58.84381868	     46.82555093	      0.00000000	      0.00000000
     11.42500000	     -3.46753057	     -4.66458291	     -5.73049518	      1.00837953	      0.93763881	      0.44825916	     29.04639435	     -3.32182585	     -3.93954763	     47.01972110	     47.01972110	      3.15172346	    -11.97175504	      0.45510314	      9.01277636	     -4.73734057	    -10.82151816	     17.40668210	     17.40668210	     13.34155301	    -11.78154151	      1.12105073	    -11.07469512	      5.39264092	      0.71959227	     -7.01907367	    -11.99824981	     -2.47523220	     26.74657117	     46.18522315	      0.00000000	      0.00000000	     17.79358687	    -18.51414718	     -3.22238043	     59.77855827	     46.90959163	      0.00000000	      0.00000000
     11.43857143	     -3.69677875	     -4.70861907	     -6.10079961	      1.00671299	      0.93731210	      0.44915926	     29.11135550	     -2.92275584	     -4.32923217	     43.59317275	     43.59317275	      3.36203900	    -10.97515929	      0.46918660	      8.76047922	     -4.84530393	    -11.21371972	     17.09339932	     17.09339932	     13.42766962	    -11.63571274	      0.78568283	    -10.99878252	      5.40181725	      0.54987859	     -7.94072260	    -11.74580815	     -2.45653718	     26.84725751	     46.17010880	      0.00000000	      0.00000000	     18.47774861	    -18.92112214	     -3.81655939	     60.44156794	     46.97340991	      0.00000000	      0.00000000
     11.45214286	     -3.84961679	     -4.74264285	     -6.46235666	      1.00511573	      0.93699490	      0.45019290	     28.93033094	     -2.53584268	     -4.80454284	     39.88359679	     39.88359679	      3.47270029	     -9.53373020	      0.32298934	      8.42251610	     -4.95218674	    -11.67466526	     16.78920264	     16.78920264	     13.51586190	    -11.40283276	      0.29989083	    -11.03693257	      5.39387771	      0.45569573	     -8.78919900	    -11.55719208	     -2.43178935	     27.08613101	     46.14932568	      0.00000000	      0.00000000	     19.15820408	    -19.21750873	     -4.48122653	     61.11971800	     47.04287745	      0.00000000	      0.00000000
     11.46571429	     -4.12426682	     -4.76079484	     -6.79554744	      1.00349487	      0.93642535	      0.45138617	     28.74188642	     -2.08837604	     -5.25497189	     35.98236809	     35.98236809	      3.56164303	     -7.90387264	      0.33721200	      8.23306063	     -5.05349059	    -12.05408507	     16.49928186	     16.49928186	     13.60300675	    -11.23747673	     -0.09911252	    -10.89156479	      5.39307879	      0.34590243	     -9.46150890	    -11.29054825	     -2.38528576	     27.26609668	     46.13106006	      0.00000000	      0.00000000	     19.81027630	    -19.56627700	     -4.97844816	     61.58870158	     47.09513163	      0.00000000	      0.00000000
     11.47928571	     -4.24290751	     -4.74214887	     -7.13269722	      1.00220887	      0.93588457	      0.45265566	     28.13564223	     -1.73523892	     -5.94647685	     31.74466341	     31.74466341	      2.86203431	     -5.80476711	     -1.78422527	      7.80321785	     -5.14486440	    -12.73477203	     16.10387286	     16.10387286	     13.20543324	    -10.84199287	     -2.10801192	    -10.93801101	      5.33010791	      0.28822492	    -10.59926473	    -11.26845137	     -2.03900212	     29.07260556	     46.01783326	      0.00000000	      0.00000000	     20.42176425	    -19.42992416	     -6.73321380	     62.19399527	     47.25347019	      0.00000000	      0.00000000
     11.49285714	     -4.39146635	     -4.68027361	     -7.42185520	      1.00102677	      0.93535315	      0.45395649	     27.52906404	     -1.36598265	     -6.57920373	     27.69516028	     27.69516028	      2.77728528	     -3.36110746	     -1.39971182	      7.40743011	     -5.11329668	    -13.03931236	     15.71419589	     15.71419589	     13.30321318	    -10.73241260	     -2.41988438	    -10.88343094	      5.23642941	      0.24061626	    -10.99110469	    -11.10447891	     -1.79714491	     29.07323464	     45.99844859	      0.00000000	      0.00000000	     21.08993943	    -19.74969355	     -6.81739342	     62.35150112	     47.27058258	      0.00000000	      0.00000000
     11.50642857	     -4.52493714	     -4.59537723	     -7.68198981	      1.00006239	      0.93472910	      0.45534515	     26.85846600	     -1.01824438	     -7.31107464	     23.87107071	     23.87107071	      2.67118557	     -0.70207652	     -0.59049171	      6.99670896	     -5.07611785	    -13.41951804	     15.34889800	     15.34889800	     13.36661813	    -10.49012013	     -3.00008201	    -10.81030714	      5.13306318	      0.22932986	    -11.35189392	    -10.97953748	     -1.52728022	     29.28550456	     45.96905873	      0.00000000	      0.00000000	     21.74113648	    -19.96304276	     -6.96445341	     62.32013862	     47.29043417	      0.00000000	      0.00000000
